STARTFONT 2.1
COMMENT AUTOMATICALLY GENERATED FILE. DO NOT EDIT!
COMMENT Generated with 'ucs2any.pl tmpfont.bdf ../KOI8-C.TXT KOI8-C'
COMMENT from an ISO10646-1 encoded source BDF font.
COMMENT ucs2any.pl by Markus Kuhn <mkuhn@acm.org>, 1999.
COMMENT "Id: 8x13.bdf,v 1.46 1999-11-13 20:49:01+00 mgk25 Exp mgk25 $"
COMMENT "Send bug reports to Markus Kuhn <mkuhn@acm.org>"
COMMENT $XFree86$
FONT -Misc-Fixed-Medium-R-Normal--13-120-75-75-C-80-KOI8-R
SIZE 13 75 75
FONTBOUNDINGBOX 8 13 0 -2
STARTPROPERTIES 22
FONTNAME_REGISTRY ""
FOUNDRY "Misc"
FAMILY_NAME "Fixed"
WEIGHT_NAME "Medium"
SLANT "R"
SETWIDTH_NAME "Normal"
ADD_STYLE_NAME ""
PIXEL_SIZE 13
POINT_SIZE 120
RESOLUTION_X 75
RESOLUTION_Y 75
SPACING "C"
AVERAGE_WIDTH 80
CHARSET_REGISTRY "KOI8"
CHARSET_ENCODING "R"
FONT_DESCENT 2
FONT_ASCENT 11
COPYRIGHT "Public domain font.  Share and enjoy."
CAP_HEIGHT 9
X_HEIGHT 6
_XMBDFED_INFO "Edited with xmbdfed 4.3."
_XFREE86_GLYPH_RANGES "1_126 149 152_154 156_158 163 179 191_255"
ENDPROPERTIES
CHARS 200
STARTCHAR uni25C6
ENCODING 1
SWIDTH 568 0
DWIDTH 8 0
BBX 8 7 0 1
BITMAP
10
38
7C
FE
7C
38
10
ENDCHAR
STARTCHAR shade
ENCODING 2
SWIDTH 568 0
DWIDTH 8 0
BBX 8 13 0 -2
BITMAP
AA
55
AA
55
AA
55
AA
55
AA
55
AA
55
AA
ENDCHAR
STARTCHAR uni2409
ENCODING 3
SWIDTH 568 0
DWIDTH 8 0
BBX 8 9 0 0
BITMAP
A0
A0
E0
A0
AE
04
04
04
04
ENDCHAR
STARTCHAR uni240C
ENCODING 4
SWIDTH 568 0
DWIDTH 8 0
BBX 8 9 0 0
BITMAP
E0
80
C0
80
8E
08
0C
08
08
ENDCHAR
STARTCHAR uni240D
ENCODING 5
SWIDTH 568 0
DWIDTH 8 0
BBX 8 9 0 0
BITMAP
60
80
80
80
6C
0A
0C
0A
0A
ENDCHAR
STARTCHAR uni240A
ENCODING 6
SWIDTH 568 0
DWIDTH 8 0
BBX 8 9 0 0
BITMAP
80
80
80
80
EE
08
0C
08
08
ENDCHAR
STARTCHAR degree
ENCODING 7
SWIDTH 568 0
DWIDTH 8 0
BBX 8 4 0 5
BITMAP
18
24
24
18
ENDCHAR
STARTCHAR plusminus
ENCODING 8
SWIDTH 568 0
DWIDTH 8 0
BBX 8 7 0 1
BITMAP
10
10
7C
10
10
00
7C
ENDCHAR
STARTCHAR uni2424
ENCODING 9
SWIDTH 568 0
DWIDTH 8 0
BBX 8 9 0 0
BITMAP
C0
A0
A0
A0
A8
08
08
08
0E
ENDCHAR
STARTCHAR uni240B
ENCODING 10
SWIDTH 568 0
DWIDTH 8 0
BBX 8 9 0 0
BITMAP
88
88
50
50
2E
04
04
04
04
ENDCHAR
STARTCHAR SF040000
ENCODING 11
SWIDTH 568 0
DWIDTH 8 0
BBX 8 7 0 4
BITMAP
10
10
10
10
10
10
F0
ENDCHAR
STARTCHAR SF030000
ENCODING 12
SWIDTH 568 0
DWIDTH 8 0
BBX 8 7 0 -2
BITMAP
F0
10
10
10
10
10
10
ENDCHAR
STARTCHAR SF010000
ENCODING 13
SWIDTH 568 0
DWIDTH 8 0
BBX 8 7 0 -2
BITMAP
1F
10
10
10
10
10
10
ENDCHAR
STARTCHAR SF020000
ENCODING 14
SWIDTH 568 0
DWIDTH 8 0
BBX 8 7 0 4
BITMAP
10
10
10
10
10
10
1F
ENDCHAR
STARTCHAR SF050000
ENCODING 15
SWIDTH 568 0
DWIDTH 8 0
BBX 8 13 0 -2
BITMAP
10
10
10
10
10
10
FF
10
10
10
10
10
10
ENDCHAR
STARTCHAR char16
ENCODING 16
SWIDTH 568 0
DWIDTH 8 0
BBX 8 1 0 6
BITMAP
FF
ENDCHAR
STARTCHAR char17
ENCODING 17
SWIDTH 568 0
DWIDTH 8 0
BBX 8 1 0 4
BITMAP
FF
ENDCHAR
STARTCHAR char18
ENCODING 18
SWIDTH 568 0
DWIDTH 8 0
BBX 8 1 0 2
BITMAP
FF
ENDCHAR
STARTCHAR char19
ENCODING 19
SWIDTH 568 0
DWIDTH 8 0
BBX 8 1 0 0
BITMAP
FF
ENDCHAR
STARTCHAR char20
ENCODING 20
SWIDTH 568 0
DWIDTH 8 0
BBX 8 1 0 -2
BITMAP
FF
ENDCHAR
STARTCHAR SF080000
ENCODING 21
SWIDTH 568 0
DWIDTH 8 0
BBX 8 13 0 -2
BITMAP
10
10
10
10
10
10
1F
10
10
10
10
10
10
ENDCHAR
STARTCHAR SF090000
ENCODING 22
SWIDTH 568 0
DWIDTH 8 0
BBX 8 13 0 -2
BITMAP
10
10
10
10
10
10
F0
10
10
10
10
10
10
ENDCHAR
STARTCHAR SF070000
ENCODING 23
SWIDTH 568 0
DWIDTH 8 0
BBX 8 7 0 4
BITMAP
10
10
10
10
10
10
FF
ENDCHAR
STARTCHAR SF060000
ENCODING 24
SWIDTH 568 0
DWIDTH 8 0
BBX 8 7 0 -2
BITMAP
FF
10
10
10
10
10
10
ENDCHAR
STARTCHAR SF110000
ENCODING 25
SWIDTH 568 0
DWIDTH 8 0
BBX 8 13 0 -2
BITMAP
10
10
10
10
10
10
10
10
10
10
10
10
10
ENDCHAR
STARTCHAR lessequal
ENCODING 26
SWIDTH 568 0
DWIDTH 8 0
BBX 8 7 0 0
BITMAP
0E
30
C0
30
0E
00
FE
ENDCHAR
STARTCHAR greaterequal
ENCODING 27
SWIDTH 568 0
DWIDTH 8 0
BBX 8 7 0 0
BITMAP
E0
18
06
18
E0
00
FE
ENDCHAR
STARTCHAR pi
ENCODING 28
SWIDTH 568 0
DWIDTH 8 0
BBX 8 6 0 0
BITMAP
FE
44
44
44
44
44
ENDCHAR
STARTCHAR notequal
ENCODING 29
SWIDTH 568 0
DWIDTH 8 0
BBX 8 8 0 0
BITMAP
04
04
7E
08
10
7E
20
20
ENDCHAR
STARTCHAR sterling
ENCODING 30
SWIDTH 568 0
DWIDTH 8 0
BBX 8 9 0 0
BITMAP
1C
22
20
70
20
20
20
62
DC
ENDCHAR
STARTCHAR periodcentered
ENCODING 31
SWIDTH 568 0
DWIDTH 8 0
BBX 8 1 0 4
BITMAP
18
ENDCHAR
STARTCHAR space
ENCODING 32
SWIDTH 568 0
DWIDTH 8 0
BBX 0 0 0 0
BITMAP
ENDCHAR
STARTCHAR exclam
ENCODING 33
SWIDTH 568 0
DWIDTH 8 0
BBX 8 9 0 0
BITMAP
10
10
10
10
10
10
10
00
10
ENDCHAR
STARTCHAR quotedbl
ENCODING 34
SWIDTH 568 0
DWIDTH 8 0
BBX 8 3 0 6
BITMAP
24
24
24
ENDCHAR
STARTCHAR numbersign
ENCODING 35
SWIDTH 568 0
DWIDTH 8 0
BBX 8 7 0 1
BITMAP
24
24
7E
24
7E
24
24
ENDCHAR
STARTCHAR dollar
ENCODING 36
SWIDTH 568 0
DWIDTH 8 0
BBX 8 9 0 0
BITMAP
10
3C
50
50
38
14
14
78
10
ENDCHAR
STARTCHAR percent
ENCODING 37
SWIDTH 568 0
DWIDTH 8 0
BBX 8 9 0 0
BITMAP
22
52
24
08
08
10
24
2A
44
ENDCHAR
STARTCHAR ampersand
ENCODING 38
SWIDTH 568 0
DWIDTH 8 0
BBX 8 7 0 0
BITMAP
30
48
48
30
4A
44
3A
ENDCHAR
STARTCHAR quotesingle
ENCODING 39
SWIDTH 568 0
DWIDTH 8 0
BBX 8 3 0 6
BITMAP
10
10
10
ENDCHAR
STARTCHAR parenleft
ENCODING 40
SWIDTH 568 0
DWIDTH 8 0
BBX 8 9 0 0
BITMAP
04
08
08
10
10
10
08
08
04
ENDCHAR
STARTCHAR parenright
ENCODING 41
SWIDTH 568 0
DWIDTH 8 0
BBX 8 9 0 0
BITMAP
20
10
10
08
08
08
10
10
20
ENDCHAR
STARTCHAR asterisk
ENCODING 42
SWIDTH 568 0
DWIDTH 8 0
BBX 8 5 0 2
BITMAP
24
18
7E
18
24
ENDCHAR
STARTCHAR plus
ENCODING 43
SWIDTH 568 0
DWIDTH 8 0
BBX 8 5 0 2
BITMAP
10
10
7C
10
10
ENDCHAR
STARTCHAR comma
ENCODING 44
SWIDTH 568 0
DWIDTH 8 0
BBX 8 3 0 -1
BITMAP
38
30
40
ENDCHAR
STARTCHAR hyphen
ENCODING 45
SWIDTH 568 0
DWIDTH 8 0
BBX 8 1 0 4
BITMAP
7C
ENDCHAR
STARTCHAR period
ENCODING 46
SWIDTH 568 0
DWIDTH 8 0
BBX 8 3 0 -1
BITMAP
10
38
10
ENDCHAR
STARTCHAR slash
ENCODING 47
SWIDTH 568 0
DWIDTH 8 0
BBX 8 9 0 0
BITMAP
02
02
04
08
10
20
40
80
80
ENDCHAR
STARTCHAR zero
ENCODING 48
SWIDTH 568 0
DWIDTH 8 0
BBX 8 9 0 0
BITMAP
18
24
42
42
42
42
42
24
18
ENDCHAR
STARTCHAR one
ENCODING 49
SWIDTH 568 0
DWIDTH 8 0
BBX 8 9 0 0
BITMAP
10
30
50
10
10
10
10
10
7C
ENDCHAR
STARTCHAR two
ENCODING 50
SWIDTH 568 0
DWIDTH 8 0
BBX 8 9 0 0
BITMAP
3C
42
42
02
04
18
20
40
7E
ENDCHAR
STARTCHAR three
ENCODING 51
SWIDTH 568 0
DWIDTH 8 0
BBX 8 9 0 0
BITMAP
7E
02
04
08
1C
02
02
42
3C
ENDCHAR
STARTCHAR four
ENCODING 52
SWIDTH 568 0
DWIDTH 8 0
BBX 8 9 0 0
BITMAP
04
0C
14
24
44
44
7E
04
04
ENDCHAR
STARTCHAR five
ENCODING 53
SWIDTH 568 0
DWIDTH 8 0
BBX 8 9 0 0
BITMAP
7E
40
40
5C
62
02
02
42
3C
ENDCHAR
STARTCHAR six
ENCODING 54
SWIDTH 568 0
DWIDTH 8 0
BBX 8 9 0 0
BITMAP
1C
20
40
40
5C
62
42
42
3C
ENDCHAR
STARTCHAR seven
ENCODING 55
SWIDTH 568 0
DWIDTH 8 0
BBX 8 9 0 0
BITMAP
7E
02
04
08
08
10
10
20
20
ENDCHAR
STARTCHAR eight
ENCODING 56
SWIDTH 568 0
DWIDTH 8 0
BBX 8 9 0 0
BITMAP
3C
42
42
42
3C
42
42
42
3C
ENDCHAR
STARTCHAR nine
ENCODING 57
SWIDTH 568 0
DWIDTH 8 0
BBX 8 9 0 0
BITMAP
3C
42
42
46
3A
02
02
04
38
ENDCHAR
STARTCHAR colon
ENCODING 58
SWIDTH 568 0
DWIDTH 8 0
BBX 8 8 0 -1
BITMAP
10
38
10
00
00
10
38
10
ENDCHAR
STARTCHAR semicolon
ENCODING 59
SWIDTH 568 0
DWIDTH 8 0
BBX 8 8 0 -1
BITMAP
10
38
10
00
00
38
30
40
ENDCHAR
STARTCHAR less
ENCODING 60
SWIDTH 568 0
DWIDTH 8 0
BBX 8 9 0 0
BITMAP
02
04
08
10
20
10
08
04
02
ENDCHAR
STARTCHAR equal
ENCODING 61
SWIDTH 568 0
DWIDTH 8 0
BBX 8 4 0 2
BITMAP
7E
00
00
7E
ENDCHAR
STARTCHAR greater
ENCODING 62
SWIDTH 568 0
DWIDTH 8 0
BBX 8 9 0 0
BITMAP
40
20
10
08
04
08
10
20
40
ENDCHAR
STARTCHAR question
ENCODING 63
SWIDTH 568 0
DWIDTH 8 0
BBX 8 9 0 0
BITMAP
3C
42
42
02
04
08
08
00
08
ENDCHAR
STARTCHAR at
ENCODING 64
SWIDTH 568 0
DWIDTH 8 0
BBX 8 9 0 0
BITMAP
3C
42
42
4E
52
56
4A
40
3C
ENDCHAR
STARTCHAR A
ENCODING 65
SWIDTH 568 0
DWIDTH 8 0
BBX 8 9 0 0
BITMAP
18
24
42
42
42
7E
42
42
42
ENDCHAR
STARTCHAR B
ENCODING 66
SWIDTH 568 0
DWIDTH 8 0
BBX 8 9 0 0
BITMAP
78
44
42
44
78
44
42
44
78
ENDCHAR
STARTCHAR C
ENCODING 67
SWIDTH 568 0
DWIDTH 8 0
BBX 8 9 0 0
BITMAP
3C
42
40
40
40
40
40
42
3C
ENDCHAR
STARTCHAR D
ENCODING 68
SWIDTH 568 0
DWIDTH 8 0
BBX 8 9 0 0
BITMAP
78
44
42
42
42
42
42
44
78
ENDCHAR
STARTCHAR E
ENCODING 69
SWIDTH 568 0
DWIDTH 8 0
BBX 8 9 0 0
BITMAP
7E
40
40
40
78
40
40
40
7E
ENDCHAR
STARTCHAR F
ENCODING 70
SWIDTH 568 0
DWIDTH 8 0
BBX 8 9 0 0
BITMAP
7E
40
40
40
78
40
40
40
40
ENDCHAR
STARTCHAR G
ENCODING 71
SWIDTH 568 0
DWIDTH 8 0
BBX 8 9 0 0
BITMAP
3C
42
40
40
40
4E
42
46
3A
ENDCHAR
STARTCHAR H
ENCODING 72
SWIDTH 568 0
DWIDTH 8 0
BBX 8 9 0 0
BITMAP
42
42
42
42
7E
42
42
42
42
ENDCHAR
STARTCHAR I
ENCODING 73
SWIDTH 568 0
DWIDTH 8 0
BBX 8 9 0 0
BITMAP
7C
10
10
10
10
10
10
10
7C
ENDCHAR
STARTCHAR J
ENCODING 74
SWIDTH 568 0
DWIDTH 8 0
BBX 8 9 0 0
BITMAP
1F
04
04
04
04
04
04
44
38
ENDCHAR
STARTCHAR K
ENCODING 75
SWIDTH 568 0
DWIDTH 8 0
BBX 8 9 0 0
BITMAP
42
44
48
50
60
50
48
44
42
ENDCHAR
STARTCHAR L
ENCODING 76
SWIDTH 568 0
DWIDTH 8 0
BBX 8 9 0 0
BITMAP
40
40
40
40
40
40
40
40
7E
ENDCHAR
STARTCHAR M
ENCODING 77
SWIDTH 568 0
DWIDTH 8 0
BBX 8 9 0 0
BITMAP
82
82
C6
AA
92
92
82
82
82
ENDCHAR
STARTCHAR N
ENCODING 78
SWIDTH 568 0
DWIDTH 8 0
BBX 8 9 0 0
BITMAP
42
42
62
52
4A
46
42
42
42
ENDCHAR
STARTCHAR O
ENCODING 79
SWIDTH 568 0
DWIDTH 8 0
BBX 8 9 0 0
BITMAP
3C
42
42
42
42
42
42
42
3C
ENDCHAR
STARTCHAR P
ENCODING 80
SWIDTH 568 0
DWIDTH 8 0
BBX 8 9 0 0
BITMAP
7C
42
42
42
7C
40
40
40
40
ENDCHAR
STARTCHAR Q
ENCODING 81
SWIDTH 568 0
DWIDTH 8 0
BBX 8 10 0 -1
BITMAP
3C
42
42
42
42
42
52
4A
3C
02
ENDCHAR
STARTCHAR R
ENCODING 82
SWIDTH 568 0
DWIDTH 8 0
BBX 8 9 0 0
BITMAP
7C
42
42
42
7C
50
48
44
42
ENDCHAR
STARTCHAR S
ENCODING 83
SWIDTH 568 0
DWIDTH 8 0
BBX 8 9 0 0
BITMAP
3C
42
40
40
3C
02
02
42
3C
ENDCHAR
STARTCHAR T
ENCODING 84
SWIDTH 568 0
DWIDTH 8 0
BBX 8 9 0 0
BITMAP
FE
10
10
10
10
10
10
10
10
ENDCHAR
STARTCHAR U
ENCODING 85
SWIDTH 568 0
DWIDTH 8 0
BBX 8 9 0 0
BITMAP
42
42
42
42
42
42
42
42
3C
ENDCHAR
STARTCHAR V
ENCODING 86
SWIDTH 568 0
DWIDTH 8 0
BBX 8 9 0 0
BITMAP
82
82
44
44
44
28
28
28
10
ENDCHAR
STARTCHAR W
ENCODING 87
SWIDTH 568 0
DWIDTH 8 0
BBX 8 9 0 0
BITMAP
82
82
82
82
92
92
92
AA
44
ENDCHAR
STARTCHAR X
ENCODING 88
SWIDTH 568 0
DWIDTH 8 0
BBX 8 9 0 0
BITMAP
82
82
44
28
10
28
44
82
82
ENDCHAR
STARTCHAR Y
ENCODING 89
SWIDTH 568 0
DWIDTH 8 0
BBX 8 9 0 0
BITMAP
82
82
44
28
10
10
10
10
10
ENDCHAR
STARTCHAR Z
ENCODING 90
SWIDTH 568 0
DWIDTH 8 0
BBX 8 9 0 0
BITMAP
7E
02
04
08
10
20
40
40
7E
ENDCHAR
STARTCHAR bracketleft
ENCODING 91
SWIDTH 568 0
DWIDTH 8 0
BBX 8 9 0 0
BITMAP
3C
20
20
20
20
20
20
20
3C
ENDCHAR
STARTCHAR backslash
ENCODING 92
SWIDTH 568 0
DWIDTH 8 0
BBX 8 9 0 0
BITMAP
80
80
40
20
10
08
04
02
02
ENDCHAR
STARTCHAR bracketright
ENCODING 93
SWIDTH 568 0
DWIDTH 8 0
BBX 8 9 0 0
BITMAP
78
08
08
08
08
08
08
08
78
ENDCHAR
STARTCHAR asciicircum
ENCODING 94
SWIDTH 568 0
DWIDTH 8 0
BBX 8 3 0 6
BITMAP
10
28
44
ENDCHAR
STARTCHAR underscore
ENCODING 95
SWIDTH 568 0
DWIDTH 8 0
BBX 8 1 0 -1
BITMAP
FE
ENDCHAR
STARTCHAR grave
ENCODING 96
SWIDTH 568 0
DWIDTH 8 0
BBX 8 2 0 8
BITMAP
10
08
ENDCHAR
STARTCHAR a
ENCODING 97
SWIDTH 568 0
DWIDTH 8 0
BBX 8 6 0 0
BITMAP
3C
02
3E
42
46
3A
ENDCHAR
STARTCHAR b
ENCODING 98
SWIDTH 568 0
DWIDTH 8 0
BBX 8 9 0 0
BITMAP
40
40
40
5C
62
42
42
62
5C
ENDCHAR
STARTCHAR c
ENCODING 99
SWIDTH 568 0
DWIDTH 8 0
BBX 8 6 0 0
BITMAP
3C
42
40
40
42
3C
ENDCHAR
STARTCHAR d
ENCODING 100
SWIDTH 568 0
DWIDTH 8 0
BBX 8 9 0 0
BITMAP
02
02
02
3A
46
42
42
46
3A
ENDCHAR
STARTCHAR e
ENCODING 101
SWIDTH 568 0
DWIDTH 8 0
BBX 8 6 0 0
BITMAP
3C
42
7E
40
42
3C
ENDCHAR
STARTCHAR f
ENCODING 102
SWIDTH 568 0
DWIDTH 8 0
BBX 8 9 0 0
BITMAP
1C
22
20
20
7C
20
20
20
20
ENDCHAR
STARTCHAR g
ENCODING 103
SWIDTH 568 0
DWIDTH 8 0
BBX 8 8 0 -2
BITMAP
3A
44
44
38
40
3C
42
3C
ENDCHAR
STARTCHAR h
ENCODING 104
SWIDTH 568 0
DWIDTH 8 0
BBX 8 9 0 0
BITMAP
40
40
40
5C
62
42
42
42
42
ENDCHAR
STARTCHAR i
ENCODING 105
SWIDTH 568 0
DWIDTH 8 0
BBX 8 8 0 0
BITMAP
10
00
30
10
10
10
10
7C
ENDCHAR
STARTCHAR j
ENCODING 106
SWIDTH 568 0
DWIDTH 8 0
BBX 8 10 0 -2
BITMAP
04
00
0C
04
04
04
04
44
44
38
ENDCHAR
STARTCHAR k
ENCODING 107
SWIDTH 568 0
DWIDTH 8 0
BBX 8 9 0 0
BITMAP
40
40
40
44
48
70
48
44
42
ENDCHAR
STARTCHAR l
ENCODING 108
SWIDTH 568 0
DWIDTH 8 0
BBX 8 9 0 0
BITMAP
30
10
10
10
10
10
10
10
7C
ENDCHAR
STARTCHAR m
ENCODING 109
SWIDTH 568 0
DWIDTH 8 0
BBX 8 6 0 0
BITMAP
EC
92
92
92
92
82
ENDCHAR
STARTCHAR n
ENCODING 110
SWIDTH 568 0
DWIDTH 8 0
BBX 8 6 0 0
BITMAP
5C
62
42
42
42
42
ENDCHAR
STARTCHAR o
ENCODING 111
SWIDTH 568 0
DWIDTH 8 0
BBX 8 6 0 0
BITMAP
3C
42
42
42
42
3C
ENDCHAR
STARTCHAR p
ENCODING 112
SWIDTH 568 0
DWIDTH 8 0
BBX 8 8 0 -2
BITMAP
5C
62
42
62
5C
40
40
40
ENDCHAR
STARTCHAR q
ENCODING 113
SWIDTH 568 0
DWIDTH 8 0
BBX 8 8 0 -2
BITMAP
3A
46
42
46
3A
02
02
02
ENDCHAR
STARTCHAR r
ENCODING 114
SWIDTH 568 0
DWIDTH 8 0
BBX 8 6 0 0
BITMAP
5C
22
20
20
20
20
ENDCHAR
STARTCHAR s
ENCODING 115
SWIDTH 568 0
DWIDTH 8 0
BBX 8 6 0 0
BITMAP
3C
42
30
0C
42
3C
ENDCHAR
STARTCHAR t
ENCODING 116
SWIDTH 568 0
DWIDTH 8 0
BBX 8 8 0 0
BITMAP
20
20
7C
20
20
20
22
1C
ENDCHAR
STARTCHAR u
ENCODING 117
SWIDTH 568 0
DWIDTH 8 0
BBX 8 6 0 0
BITMAP
44
44
44
44
44
3A
ENDCHAR
STARTCHAR v
ENCODING 118
SWIDTH 568 0
DWIDTH 8 0
BBX 8 6 0 0
BITMAP
44
44
44
28
28
10
ENDCHAR
STARTCHAR w
ENCODING 119
SWIDTH 568 0
DWIDTH 8 0
BBX 8 6 0 0
BITMAP
82
82
92
92
AA
44
ENDCHAR
STARTCHAR x
ENCODING 120
SWIDTH 568 0
DWIDTH 8 0
BBX 8 6 0 0
BITMAP
42
24
18
18
24
42
ENDCHAR
STARTCHAR y
ENCODING 121
SWIDTH 568 0
DWIDTH 8 0
BBX 8 8 0 -2
BITMAP
42
42
42
46
3A
02
42
3C
ENDCHAR
STARTCHAR z
ENCODING 122
SWIDTH 568 0
DWIDTH 8 0
BBX 8 6 0 0
BITMAP
7E
04
08
10
20
7E
ENDCHAR
STARTCHAR braceleft
ENCODING 123
SWIDTH 568 0
DWIDTH 8 0
BBX 8 9 0 0
BITMAP
0E
10
10
08
30
08
10
10
0E
ENDCHAR
STARTCHAR bar
ENCODING 124
SWIDTH 568 0
DWIDTH 8 0
BBX 8 9 0 0
BITMAP
10
10
10
10
10
10
10
10
10
ENDCHAR
STARTCHAR braceright
ENCODING 125
SWIDTH 568 0
DWIDTH 8 0
BBX 8 9 0 0
BITMAP
70
08
08
10
0C
10
08
08
70
ENDCHAR
STARTCHAR asciitilde
ENCODING 126
SWIDTH 568 0
DWIDTH 8 0
BBX 8 3 0 6
BITMAP
24
54
48
ENDCHAR
STARTCHAR bullet
ENCODING 149
SWIDTH 568 0
DWIDTH 8 0
BBX 8 5 0 2
BITMAP
38
7C
7C
7C
38
ENDCHAR
STARTCHAR lessequal
ENCODING 152
SWIDTH 568 0
DWIDTH 8 0
BBX 8 7 0 0
BITMAP
0E
30
C0
30
0E
00
FE
ENDCHAR
STARTCHAR greaterequal
ENCODING 153
SWIDTH 568 0
DWIDTH 8 0
BBX 8 7 0 0
BITMAP
E0
18
06
18
E0
00
FE
ENDCHAR
STARTCHAR space
ENCODING 154
SWIDTH 568 0
DWIDTH 8 0
BBX 0 0 0 0
BITMAP
ENDCHAR
STARTCHAR degree
ENCODING 156
SWIDTH 568 0
DWIDTH 8 0
BBX 8 4 0 5
BITMAP
18
24
24
18
ENDCHAR
STARTCHAR twosuperior
ENCODING 157
SWIDTH 568 0
DWIDTH 8 0
BBX 8 6 0 4
BITMAP
30
48
08
30
40
78
ENDCHAR
STARTCHAR periodcentered
ENCODING 158
SWIDTH 568 0
DWIDTH 8 0
BBX 8 1 0 4
BITMAP
18
ENDCHAR
STARTCHAR afii10071
ENCODING 163
SWIDTH 568 0
DWIDTH 8 0
BBX 8 9 0 0
BITMAP
24
24
00
3C
42
7E
40
42
3C
ENDCHAR
STARTCHAR afii10023
ENCODING 179
SWIDTH 568 0
DWIDTH 8 0
BBX 8 11 0 0
BITMAP
24
24
7E
40
40
40
7C
40
40
40
7E
ENDCHAR
STARTCHAR copyright
ENCODING 191
SWIDTH 568 0
DWIDTH 8 0
BBX 8 9 0 1
BITMAP
38
44
92
AA
A2
AA
92
44
38
ENDCHAR
STARTCHAR afii10096
ENCODING 192
SWIDTH 568 0
DWIDTH 8 0
BBX 8 6 0 0
BITMAP
8C
92
F2
92
92
8C
ENDCHAR
STARTCHAR afii10065
ENCODING 193
SWIDTH 568 0
DWIDTH 8 0
BBX 8 6 0 0
BITMAP
3C
02
3E
42
42
3E
ENDCHAR
STARTCHAR afii10066
ENCODING 194
SWIDTH 568 0
DWIDTH 8 0
BBX 8 9 0 0
BITMAP
02
3C
40
7C
42
42
42
42
3C
ENDCHAR
STARTCHAR afii10088
ENCODING 195
SWIDTH 568 0
DWIDTH 8 0
BBX 8 7 0 -1
BITMAP
44
44
44
44
44
7E
02
ENDCHAR
STARTCHAR afii10069
ENCODING 196
SWIDTH 568 0
DWIDTH 8 0
BBX 8 7 0 -1
BITMAP
1C
24
24
24
24
7E
42
ENDCHAR
STARTCHAR afii10070
ENCODING 197
SWIDTH 568 0
DWIDTH 8 0
BBX 8 6 0 0
BITMAP
3C
42
7E
40
42
3C
ENDCHAR
STARTCHAR afii10086
ENCODING 198
SWIDTH 568 0
DWIDTH 8 0
BBX 8 10 0 -2
BITMAP
10
10
7C
92
92
92
92
7C
10
10
ENDCHAR
STARTCHAR afii10068
ENCODING 199
SWIDTH 568 0
DWIDTH 8 0
BBX 8 6 0 0
BITMAP
7E
42
40
40
40
40
ENDCHAR
STARTCHAR afii10087
ENCODING 200
SWIDTH 568 0
DWIDTH 8 0
BBX 8 6 0 0
BITMAP
42
24
18
18
24
42
ENDCHAR
STARTCHAR afii10074
ENCODING 201
SWIDTH 568 0
DWIDTH 8 0
BBX 8 6 0 0
BITMAP
42
46
4A
52
62
42
ENDCHAR
STARTCHAR afii10075
ENCODING 202
SWIDTH 568 0
DWIDTH 8 0
BBX 8 8 0 0
BITMAP
24
18
42
46
4A
52
62
42
ENDCHAR
STARTCHAR afii10076
ENCODING 203
SWIDTH 568 0
DWIDTH 8 0
BBX 8 6 0 0
BITMAP
44
48
70
48
44
44
ENDCHAR
STARTCHAR afii10077
ENCODING 204
SWIDTH 568 0
DWIDTH 8 0
BBX 8 6 0 0
BITMAP
1E
22
22
22
22
42
ENDCHAR
STARTCHAR afii10078
ENCODING 205
SWIDTH 568 0
DWIDTH 8 0
BBX 8 6 0 0
BITMAP
44
6C
54
54
44
44
ENDCHAR
STARTCHAR afii10079
ENCODING 206
SWIDTH 568 0
DWIDTH 8 0
BBX 8 6 0 0
BITMAP
42
42
7E
42
42
42
ENDCHAR
STARTCHAR afii10080
ENCODING 207
SWIDTH 568 0
DWIDTH 8 0
BBX 8 6 0 0
BITMAP
3C
42
42
42
42
3C
ENDCHAR
STARTCHAR afii10081
ENCODING 208
SWIDTH 568 0
DWIDTH 8 0
BBX 8 6 0 0
BITMAP
7E
42
42
42
42
42
ENDCHAR
STARTCHAR afii10097
ENCODING 209
SWIDTH 568 0
DWIDTH 8 0
BBX 8 6 0 0
BITMAP
3E
42
42
3E
22
42
ENDCHAR
STARTCHAR afii10082
ENCODING 210
SWIDTH 568 0
DWIDTH 8 0
BBX 8 8 0 -2
BITMAP
5C
62
42
42
62
5C
40
40
ENDCHAR
STARTCHAR afii10083
ENCODING 211
SWIDTH 568 0
DWIDTH 8 0
BBX 8 6 0 0
BITMAP
3C
42
40
40
42
3C
ENDCHAR
STARTCHAR afii10084
ENCODING 212
SWIDTH 568 0
DWIDTH 8 0
BBX 8 6 0 0
BITMAP
3E
08
08
08
08
08
ENDCHAR
STARTCHAR afii10085
ENCODING 213
SWIDTH 568 0
DWIDTH 8 0
BBX 8 8 0 -2
BITMAP
42
42
42
46
3A
02
42
3C
ENDCHAR
STARTCHAR afii10072
ENCODING 214
SWIDTH 568 0
DWIDTH 8 0
BBX 8 6 0 0
BITMAP
92
92
7C
54
92
92
ENDCHAR
STARTCHAR afii10067
ENCODING 215
SWIDTH 568 0
DWIDTH 8 0
BBX 8 6 0 0
BITMAP
7C
42
7C
42
42
7C
ENDCHAR
STARTCHAR afii10094
ENCODING 216
SWIDTH 568 0
DWIDTH 8 0
BBX 8 6 0 0
BITMAP
20
20
3C
22
22
3C
ENDCHAR
STARTCHAR afii10093
ENCODING 217
SWIDTH 568 0
DWIDTH 8 0
BBX 8 6 0 0
BITMAP
42
42
72
4A
4A
72
ENDCHAR
STARTCHAR afii10073
ENCODING 218
SWIDTH 568 0
DWIDTH 8 0
BBX 8 6 0 0
BITMAP
3C
42
1C
02
42
3C
ENDCHAR
STARTCHAR afii10090
ENCODING 219
SWIDTH 568 0
DWIDTH 8 0
BBX 8 6 0 0
BITMAP
92
92
92
92
92
FE
ENDCHAR
STARTCHAR afii10095
ENCODING 220
SWIDTH 568 0
DWIDTH 8 0
BBX 8 6 0 0
BITMAP
3C
02
0E
02
02
3C
ENDCHAR
STARTCHAR afii10091
ENCODING 221
SWIDTH 568 0
DWIDTH 8 0
BBX 8 7 0 -1
BITMAP
92
92
92
92
92
FF
01
ENDCHAR
STARTCHAR afii10089
ENCODING 222
SWIDTH 568 0
DWIDTH 8 0
BBX 8 6 0 0
BITMAP
42
42
46
3A
02
02
ENDCHAR
STARTCHAR afii10092
ENCODING 223
SWIDTH 568 0
DWIDTH 8 0
BBX 8 6 0 0
BITMAP
E0
20
3C
22
22
3C
ENDCHAR
STARTCHAR afii10048
ENCODING 224
SWIDTH 568 0
DWIDTH 8 0
BBX 8 9 0 0
BITMAP
8C
92
92
92
F2
92
92
92
8C
ENDCHAR
STARTCHAR afii10017
ENCODING 225
SWIDTH 568 0
DWIDTH 8 0
BBX 8 9 0 0
BITMAP
18
24
42
42
42
7E
42
42
42
ENDCHAR
STARTCHAR afii10018
ENCODING 226
SWIDTH 568 0
DWIDTH 8 0
BBX 8 9 0 0
BITMAP
7C
40
40
40
7C
42
42
42
7C
ENDCHAR
STARTCHAR afii10040
ENCODING 227
SWIDTH 568 0
DWIDTH 8 0
BBX 8 10 0 -1
BITMAP
84
84
84
84
84
84
84
84
FE
02
ENDCHAR
STARTCHAR afii10021
ENCODING 228
SWIDTH 568 0
DWIDTH 8 0
BBX 8 10 0 -1
BITMAP
1C
24
24
24
44
44
44
44
FE
82
ENDCHAR
STARTCHAR afii10022
ENCODING 229
SWIDTH 568 0
DWIDTH 8 0
BBX 8 9 0 0
BITMAP
7E
40
40
40
7C
40
40
40
7E
ENDCHAR
STARTCHAR afii10038
ENCODING 230
SWIDTH 568 0
DWIDTH 8 0
BBX 8 9 0 0
BITMAP
10
7C
92
92
92
92
7C
10
10
ENDCHAR
STARTCHAR afii10020
ENCODING 231
SWIDTH 568 0
DWIDTH 8 0
BBX 8 9 0 0
BITMAP
7E
42
40
40
40
40
40
40
40
ENDCHAR
STARTCHAR afii10039
ENCODING 232
SWIDTH 568 0
DWIDTH 8 0
BBX 8 9 0 0
BITMAP
44
44
28
28
10
28
28
44
44
ENDCHAR
STARTCHAR afii10026
ENCODING 233
SWIDTH 568 0
DWIDTH 8 0
BBX 8 9 0 0
BITMAP
42
46
46
4A
4A
52
52
62
42
ENDCHAR
STARTCHAR afii10027
ENCODING 234
SWIDTH 568 0
DWIDTH 8 0
BBX 8 11 0 0
BITMAP
24
18
42
46
46
4A
4A
52
52
62
42
ENDCHAR
STARTCHAR afii10028
ENCODING 235
SWIDTH 568 0
DWIDTH 8 0
BBX 8 9 0 0
BITMAP
42
44
48
50
60
50
48
44
42
ENDCHAR
STARTCHAR afii10029
ENCODING 236
SWIDTH 568 0
DWIDTH 8 0
BBX 8 9 0 0
BITMAP
1E
22
22
22
22
22
22
42
42
ENDCHAR
STARTCHAR afii10030
ENCODING 237
SWIDTH 568 0
DWIDTH 8 0
BBX 8 9 0 0
BITMAP
82
82
C6
AA
92
92
82
82
82
ENDCHAR
STARTCHAR afii10031
ENCODING 238
SWIDTH 568 0
DWIDTH 8 0
BBX 8 9 0 0
BITMAP
42
42
42
42
7E
42
42
42
42
ENDCHAR
STARTCHAR afii10032
ENCODING 239
SWIDTH 568 0
DWIDTH 8 0
BBX 8 9 0 0
BITMAP
3C
42
42
42
42
42
42
42
3C
ENDCHAR
STARTCHAR afii10033
ENCODING 240
SWIDTH 568 0
DWIDTH 8 0
BBX 8 9 0 0
BITMAP
7E
42
42
42
42
42
42
42
42
ENDCHAR
STARTCHAR afii10049
ENCODING 241
SWIDTH 568 0
DWIDTH 8 0
BBX 8 9 0 0
BITMAP
3C
44
44
44
3C
14
24
44
44
ENDCHAR
STARTCHAR afii10034
ENCODING 242
SWIDTH 568 0
DWIDTH 8 0
BBX 8 9 0 0
BITMAP
7C
42
42
42
42
7C
40
40
40
ENDCHAR
STARTCHAR afii10035
ENCODING 243
SWIDTH 568 0
DWIDTH 8 0
BBX 8 9 0 0
BITMAP
3C
42
40
40
40
40
40
42
3C
ENDCHAR
STARTCHAR afii10036
ENCODING 244
SWIDTH 568 0
DWIDTH 8 0
BBX 8 9 0 0
BITMAP
FE
10
10
10
10
10
10
10
10
ENDCHAR
STARTCHAR afii10037
ENCODING 245
SWIDTH 568 0
DWIDTH 8 0
BBX 8 9 0 0
BITMAP
42
42
42
42
24
18
10
20
40
ENDCHAR
STARTCHAR afii10024
ENCODING 246
SWIDTH 568 0
DWIDTH 8 0
BBX 8 9 0 0
BITMAP
92
92
54
38
54
92
92
92
92
ENDCHAR
STARTCHAR afii10019
ENCODING 247
SWIDTH 568 0
DWIDTH 8 0
BBX 8 9 0 0
BITMAP
7C
42
42
42
7C
42
42
42
7C
ENDCHAR
STARTCHAR afii10046
ENCODING 248
SWIDTH 568 0
DWIDTH 8 0
BBX 8 9 0 0
BITMAP
40
40
40
40
7C
42
42
42
7C
ENDCHAR
STARTCHAR afii10045
ENCODING 249
SWIDTH 568 0
DWIDTH 8 0
BBX 8 9 0 0
BITMAP
42
42
42
72
4A
4A
4A
4A
72
ENDCHAR
STARTCHAR afii10025
ENCODING 250
SWIDTH 568 0
DWIDTH 8 0
BBX 8 9 0 0
BITMAP
3C
42
02
02
0C
02
02
42
3C
ENDCHAR
STARTCHAR afii10042
ENCODING 251
SWIDTH 568 0
DWIDTH 8 0
BBX 8 9 0 0
BITMAP
92
92
92
92
92
92
92
92
FE
ENDCHAR
STARTCHAR afii10047
ENCODING 252
SWIDTH 568 0
DWIDTH 8 0
BBX 8 9 0 0
BITMAP
78
04
02
02
3E
02
02
04
78
ENDCHAR
STARTCHAR afii10043
ENCODING 253
SWIDTH 568 0
DWIDTH 8 0
BBX 8 10 0 -1
BITMAP
92
92
92
92
92
92
92
92
FF
01
ENDCHAR
STARTCHAR afii10041
ENCODING 254
SWIDTH 568 0
DWIDTH 8 0
BBX 8 9 0 0
BITMAP
42
42
42
42
3E
02
02
02
02
ENDCHAR
STARTCHAR afii10044
ENCODING 255
SWIDTH 568 0
DWIDTH 8 0
BBX 8 9 0 0
BITMAP
E0
20
20
20
3C
22
22
22
3C
ENDCHAR
ENDFONT
